{"asset":{"generator":"Khronos glTF Blender I/O v4.3.47","version":"2.0"},"scene":0,"scenes":[{"name":"Scene","nodes":[0,9,18,27,36,37,38,39,40,41,42,43,44,45,46,47,48,49,50,51,52,53,54,55,56,57,58,59,60,61,62,63,64,65,66,67,68,69,70,71,72,73,74,75,76,77,78,79,80,81,82,83,84,85,86,87,88,89,90]}],"nodes":[{"mesh":0,"name":"Sand_Rippled_32m"},{"mesh":1,"name":"fish_01_body"},{"mesh":2,"name":"fish_01_dorsal"},{"mesh":3,"name":"fish_01_eye_-1"},{"mesh":4,"name":"fish_01_eye_1"},{"mesh":5,"name":"fish_01_pectoral_-1"},{"mesh":6,"name":"fish_01_pectoral_1"},{"mesh":7,"name":"fish_01_tail"},{"mesh":8,"name":"fish_01_ventral"},{"children":[1,2,3,4,5,6,7,8],"name":"fish_01","rotation":[0,0.0998334065079689,0,0.9950041770935059],"scale":[0.3935999870300293,0.3935999870300293,0.3935999870300293],"translation":[-2,2.0999999046325684,2.0999999046325684]},{"mesh":9,"name":"fish_02_body"},{"mesh":10,"name":"fish_02_dorsal"},{"mesh":11,"name":"fish_02_eye_-1"},{"mesh":12,"name":"fish_02_eye_1"},{"mesh":13,"name":"fish_02_pectoral_-1"},{"mesh":14,"name":"fish_02_pectoral_1"},{"mesh":15,"name":"fish_02_tail"},{"mesh":16,"name":"fish_02_ventral"},{"children":[10,11,12,13,14,15,16,17],"name":"fish_02","rotation":[0,0.9635581970214844,0,0.26749882102012634],"scale":[0.3456001281738281,0.3456000089645386,0.3456001281738281],"translation":[2,2.5,0.4000000059604645]},{"mesh":17,"name":"fish_03_body"},{"mesh":18,"name":"fish_03_dorsal"},{"mesh":19,"name":"fish_03_eye_-1"},{"mesh":20,"name":"fish_03_eye_1"},{"mesh":21,"name":"fish_03_pectoral_-1"},{"mesh":22,"name":"fish_03_pectoral_1"},{"mesh":23,"name":"fish_03_tail"},{"mesh":24,"name":"fish_03_ventral"},{"children":[19,20,21,22,23,24,25,26],"name":"fish_03","rotation":[0,-0.34289777278900146,0,0.9393728375434875],"scale":[0.31199997663497925,0.31199997663497925,0.31199997663497925],"translation":[-0.5,2.799999952316284,-2.9000000953674316]},{"mesh":25,"name":"fish_04_body"},{"mesh":26,"name":"fish_04_dorsal"},{"mesh":27,"name":"fish_04_eye_-1"},{"mesh":28,"name":"fish_04_eye_1"},{"mesh":29,"name":"fish_04_pectoral_-1"},{"mesh":30,"name":"fish_04_pectoral_1"},{"mesh":31,"name":"fish_04_tail"},{"mesh":32,"name":"fish_04_ventral"},{"children":[28,29,30,31,32,33,34,35],"name":"fish_04","rotation":[0,-0.9916648864746094,0,0.12884455919265747],"scale":[0.3216000199317932,0.3215999901294708,0.3216000199317932],"translation":[4.599999904632568,2.0999999046325684,-2.700000047683716]},{"mesh":33,"name":"Sand_Horizon_80m"},{"mesh":34,"name":"Hardbottom_Low_Irregular_Limestone"},{"mesh":35,"name":"Coral_Low_Irregular_Encrusting_Mounds"},{"mesh":36,"name":"Coral_Staghorn_Thicket_00"},{"mesh":37,"name":"Coral_Staghorn_Thicket_01"},{"mesh":38,"name":"Coral_Staghorn_Thicket_02","translation":[-0.6709111045177252,0,0]},{"mesh":39,"name":"Coral_Staghorn_Thicket_03","translation":[2.0729397338888824,0,0]},{"mesh":40,"name":"Coral_Staghorn_Thicket_04","translation":[0.8789262747522101,0,0]},{"mesh":41,"name":"Coral_Staghorn_Thicket_05"},{"mesh":42,"name":"Coral_Staghorn_Thicket_06"},{"mesh":43,"name":"Coral_Staghorn_Thicket_07"},{"mesh":44,"name":"Coral_Staghorn_Thicket_08"},{"mesh":45,"name":"Coral_Staghorn_Thicket_09","translation":[-1.681306874286085,0,0]},{"mesh":46,"name":"Coral_Staghorn_Thicket_10","translation":[0.9751676902059861,0,0]},{"mesh":47,"name":"Coral_Staghorn_Thicket_11"},{"mesh":48,"name":"Coral_Staghorn_Thicket_12"},{"mesh":49,"name":"Coral_Staghorn_Thicket_13"},{"mesh":50,"name":"Coral_Staghorn_Thicket_14","translation":[-1.1162401330792724,0,0]},{"mesh":51,"name":"Coral_Staghorn_Thicket_15","translation":[0.5925483967429089,0,0]},{"mesh":52,"name":"Coral_Staghorn_Thicket_16"},{"mesh":53,"name":"Coral_Staghorn_Thicket_17"},{"mesh":54,"name":"Coral_Staghorn_Thicket_18","translation":[-0.3331158363714941,0,0]},{"mesh":55,"name":"Coral_Staghorn_Thicket_19","translation":[1.9194411772560667,0,0]},{"mesh":56,"name":"Coral_Staghorn_Thicket_20","translation":[1.057804808273512,0,0]},{"mesh":57,"name":"Coral_Staghorn_Thicket_21"},{"mesh":58,"name":"Depth_Hardbottom_Closed_Irregular_Rises"},{"mesh":50,"name":"Depth_Staghorn_Linked_00_0","rotation":[0,0.14943811297416687,0,0.9887710809707642],"scale":[0.8799999952316284,0.8799999952316284,0.8095999956130981],"translation":[-9.253602981567383,0.44999998807907104,-0.6140133142471313]},{"mesh":53,"name":"Depth_Staghorn_Linked_00_1","rotation":[0,0.9320390820503235,0,0.3623577952384949],"scale":[0.6687999963760376,0.6687999963760376,0.6152960062026978],"translation":[-9.157793045043945,0.44999998807907104,-7.380264759063721]},{"mesh":44,"name":"Depth_Staghorn_Linked_01_0","rotation":[0,0.11474669724702835,0,0.9933947920799255],"scale":[0.9499998688697815,0.949999988079071,0.8977500200271606],"translation":[2.9052562713623047,0.5899999737739563,-11.345818519592285]},{"mesh":47,"name":"Depth_Staghorn_Linked_01_1","rotation":[0,0.9187883734703064,0,0.3947504460811615],"scale":[0.722000002861023,0.722000002861023,0.6822900176048279],"translation":[4.956271171569824,0.5899999737739563,-11.1922607421875]},{"mesh":36,"name":"Depth_Staghorn_Linked_02_0","rotation":[0,0.9424888491630554,0,0.33423757553100586],"scale":[0.8199999928474426,0.8199999928474426,0.7953999638557434],"translation":[7.655806064605713,0.3700000047683716,-9.80162239074707]},{"mesh":48,"name":"Depth_Staghorn_Linked_03_0","rotation":[0,0.9971288442611694,0,0.07572375237941742],"scale":[0.9200000166893005,0.9200000166893005,0.9154000282287598],"translation":[-16.02362632751465,0.6000000238418579,-18.28188705444336]},{"mesh":51,"name":"Depth_Staghorn_Linked_03_1","rotation":[0,-0.5618270039558411,0,0.8272547721862793],"scale":[0.6991999745368958,0.6991999745368958,0.6957039833068848],"translation":[-13.948254585266113,0.6000000238418579,-15.33520221710205]},{"mesh":41,"name":"Depth_Staghorn_Linked_04_0","rotation":[0,0.9938684105873108,0,0.11056962609291077],"scale":[0.7799999713897705,0.7799999713897705,0.7955999970436096],"translation":[13.734529495239258,0.5199999809265137,-20.295907974243164]},{"mesh":53,"name":"Depth_Staghorn_Linked_05_0","rotation":[0,-0.6568194627761841,0,0.7540479302406311],"scale":[0.7400000095367432,0.7400000095367432,0.7732999920845032],"translation":[-23.510465621948242,0.4699999988079071,1.3564128875732422]},{"mesh":38,"name":"Depth_Staghorn_Linked_06_0","rotation":[0,-0.8919286727905273,0,0.45217615365982056],"scale":[0.8299999833106995,0.8299999833106995,0.8881000280380249],"translation":[-2.738008499145508,0.4099999964237213,14.781949996948242]},{"mesh":40,"name":"Depth_Staghorn_Linked_07_0","rotation":[0,-0.13616815209388733,0,0.990685760974884],"scale":[0.9000000953674316,0.8999999761581421,0.9854999780654907],"translation":[11.845916748046875,0.5299999713897705,7.620236396789551]},{"mesh":52,"name":"Depth_Staghorn_Linked_08_0","rotation":[0,-0.07153178751468658,0,0.9974383115768433],"scale":[0.7700000405311584,0.7699999809265137,0.8623999953269958],"translation":[-17.651145935058594,0.3799999952316284,14.37004280090332]},{"name":"Corridor_Distant_Linked_00","mesh":49,"translation":[1.3119253407412192,-0.138343585729599,-10.966428838713433],"rotation":[0,0.24740395925452294,0,0.9689124217106447],"scale":[1.2,1.2,1.2]},{"name":"Corridor_Distant_Linked_01","mesh":54,"translation":[7.859116483693711,-0.2032935393601656,-21.043790368470095],"rotation":[0,0.8414709848078965,0,0.5403023058681398],"scale":[1.05,1.05,1.05]},{"name":"Corridor_Distant_Linked_02","mesh":39,"translation":[-4.285776016566883,-0.2054773499816656,-23.966152790381233],"rotation":[0,-0.3894183423086505,0,0.9210609940028851],"scale":[1.3,1.3,1.3]},{"name":"Corridor_Distant_Linked_03","mesh":47,"translation":[2.7100923643611026,-0.20698136165738104,-21.1866118337738],"rotation":[0,0.6051864057360395,0,0.7960837985490559],"scale":[1.16,1.16,1.16]},{"name":"Corridor_Distant_Linked_04","mesh":51,"translation":[0.4733603303782523,-0.15947299011051655,16.401745354903642],"rotation":[0,-0.19866933079506122,0,0.9800665778412416],"scale":[1.18,1.18,1.18]},{"name":"Corridor_Distant_Linked_05","mesh":43,"translation":[-8.537359770960947,-0.2074735477566719,13.760897300911413],"rotation":[0,0.9320390859672263,0,0.3623577544766736],"scale":[1.02,1.02,1.02]},{"name":"Corridor_Distant_Linked_06","mesh":48,"translation":[10.821357406454775,-0.2109666197001934,20.134404108116502],"rotation":[0,0.3894183423086505,0,0.9210609940028851],"scale":[1.27,1.27,1.27]},{"name":"Corridor_Distant_Linked_07","mesh":40,"translation":[-3.5218647267655885,-0.20108304381370545,22.969896218750026],"rotation":[0,-0.644217687237691,0,0.7648421872844885],"scale":[1.16,1.16,1.16]},{"name":"Distant_Limestone_Support_00","mesh":59,"translation":[-3.1,-0.12,-12.693558469944415],"scale":[0.2920373455777256,0.4,0.3165259562847402]},{"name":"Distant_Limestone_Support_01","mesh":59,"translation":[3.5999999999999996,-0.19,-16.303276353021037],"scale":[0.27921695272527836,0.4,0.3104522793618532]},{"name":"Distant_Limestone_Support_02","mesh":59,"translation":[-4.5,-0.19,-20.420358018134465],"scale":[0.3973892827102538,0.4,0.4247762386659594]},{"name":"Distant_Limestone_Support_03","mesh":59,"translation":[1.8000000000000007,-0.19,-25.455740383253257],"scale":[0.2984665945963227,0.4,0.3401622604667149]},{"name":"Distant_Limestone_Support_04","mesh":59,"translation":[3.6,-0.12,13.813125502140402],"scale":[0.2851880646402683,0.4,0.32070343883775215]},{"name":"Distant_Limestone_Support_05","mesh":59,"translation":[-6.400000000000001,-0.19,16.91799499420748],"scale":[0.30374257891590983,0.4,0.3237468713796754]},{"name":"Distant_Limestone_Support_06","mesh":59,"translation":[4.2,-0.19,21.87193422256862],"scale":[0.33383574850899855,0.4,0.35745888910538687]},{"name":"Distant_Limestone_Support_07","mesh":59,"translation":[-3.8,-0.19,26.68807864756614],"scale":[0.2652629133056405,0.4,0.30504915472883887]}],"materials":[{"doubleSided":true,"name":"Sand | reference-led porous PBR","normalTexture":{"index":0,"scale":0.3499999940395355},"pbrMetallicRoughness":{"metallicFactor":0,"metallicRoughnessTexture":{"index":1}}},{"doubleSided":true,"name":"Living coral.001","pbrMetallicRoughness":{"metallicFactor":0,"roughnessFactor":0.7200000286102295}},{"doubleSided":true,"name":"Limestone | reference-led porous PBR","normalTexture":{"index":2,"scale":0.699999988079071},"pbrMetallicRoughness":{"metallicFactor":0,"metallicRoughnessTexture":{"index":3}}},{"doubleSided":true,"name":"Coral | reference-led porous PBR","normalTexture":{"index":4,"scale":0.47999998927116394},"pbrMetallicRoughness":{"metallicFactor":0,"metallicRoughnessTexture":{"index":5}}}],"meshes":[{"name":"Sand_Rippled_32m","primitives":[{"attributes":{"POSITION":0,"NORMAL":1,"TEXCOORD_0":2,"COLOR_0":3},"indices":4,"material":0}]},{"name":"fish_01_body","primitives":[{"attributes":{"POSITION":5,"NORMAL":6,"COLOR_0":7},"indices":8,"material":1}]},{"name":"fish_01_dorsal","primitives":[{"attributes":{"POSITION":9,"NORMAL":10,"COLOR_0":11},"indices":12,"material":1}]},{"name":"fish_01_eye_-1","primitives":[{"attributes":{"POSITION":13,"NORMAL":14,"COLOR_0":15},"indices":16,"material":1}]},{"name":"fish_01_eye_1","primitives":[{"attributes":{"POSITION":17,"NORMAL":18,"COLOR_0":19},"indices":16,"material":1}]},{"name":"fish_01_pectoral_-1","primitives":[{"attributes":{"POSITION":20,"NORMAL":21,"COLOR_0":22},"indices":23,"material":1}]},{"name":"fish_01_pectoral_1","primitives":[{"attributes":{"POSITION":24,"NORMAL":25,"COLOR_0":26},"indices":23,"material":1}]},{"name":"fish_01_tail","primitives":[{"attributes":{"POSITION":27,"NORMAL":28,"COLOR_0":29},"indices":30,"material":1}]},{"name":"fish_01_ventral","primitives":[{"attributes":{"POSITION":31,"NORMAL":32,"COLOR_0":33},"indices":23,"material":1}]},{"name":"fish_02_body","primitives":[{"attributes":{"POSITION":34,"NORMAL":35,"COLOR_0":36},"indices":8,"material":1}]},{"name":"fish_02_dorsal","primitives":[{"attributes":{"POSITION":37,"NORMAL":38,"COLOR_0":39},"indices":12,"material":1}]},{"name":"fish_02_eye_-1","primitives":[{"attributes":{"POSITION":40,"NORMAL":41,"COLOR_0":42},"indices":16,"material":1}]},{"name":"fish_02_eye_1","primitives":[{"attributes":{"POSITION":43,"NORMAL":44,"COLOR_0":45},"indices":16,"material":1}]},{"name":"fish_02_pectoral_-1","primitives":[{"attributes":{"POSITION":46,"NORMAL":47,"COLOR_0":48},"indices":23,"material":1}]},{"name":"fish_02_pectoral_1","primitives":[{"attributes":{"POSITION":49,"NORMAL":50,"COLOR_0":51},"indices":23,"material":1}]},{"name":"fish_02_tail","primitives":[{"attributes":{"POSITION":52,"NORMAL":53,"COLOR_0":54},"indices":30,"material":1}]},{"name":"fish_02_ventral","primitives":[{"attributes":{"POSITION":55,"NORMAL":56,"COLOR_0":57},"indices":23,"material":1}]},{"name":"fish_03_body","primitives":[{"attributes":{"POSITION":58,"NORMAL":59,"COLOR_0":60},"indices":8,"material":1}]},{"name":"fish_03_dorsal","primitives":[{"attributes":{"POSITION":61,"NORMAL":62,"COLOR_0":63},"indices":12,"material":1}]},{"name":"fish_03_eye_-1","primitives":[{"attributes":{"POSITION":64,"NORMAL":65,"COLOR_0":66},"indices":16,"material":1}]},{"name":"fish_03_eye_1","primitives":[{"attributes":{"POSITION":67,"NORMAL":68,"COLOR_0":69},"indices":16,"material":1}]},{"name":"fish_03_pectoral_-1","primitives":[{"attributes":{"POSITION":70,"NORMAL":71,"COLOR_0":72},"indices":23,"material":1}]},{"name":"fish_03_pectoral_1","primitives":[{"attributes":{"POSITION":73,"NORMAL":74,"COLOR_0":75},"indices":23,"material":1}]},{"name":"fish_03_tail","primitives":[{"attributes":{"POSITION":76,"NORMAL":77,"COLOR_0":78},"indices":30,"material":1}]},{"name":"fish_03_ventral","primitives":[{"attributes":{"POSITION":79,"NORMAL":80,"COLOR_0":81},"indices":23,"material":1}]},{"name":"fish_04_body","primitives":[{"attributes":{"POSITION":82,"NORMAL":83,"COLOR_0":84},"indices":8,"material":1}]},{"name":"fish_04_dorsal","primitives":[{"attributes":{"POSITION":85,"NORMAL":86,"COLOR_0":87},"indices":12,"material":1}]},{"name":"fish_04_eye_-1","primitives":[{"attributes":{"POSITION":88,"NORMAL":89,"COLOR_0":90},"indices":16,"material":1}]},{"name":"fish_04_eye_1","primitives":[{"attributes":{"POSITION":91,"NORMAL":92,"COLOR_0":93},"indices":16,"material":1}]},{"name":"fish_04_pectoral_-1","primitives":[{"attributes":{"POSITION":94,"NORMAL":95,"COLOR_0":96},"indices":23,"material":1}]},{"name":"fish_04_pectoral_1","primitives":[{"attributes":{"POSITION":97,"NORMAL":98,"COLOR_0":99},"indices":23,"material":1}]},{"name":"fish_04_tail","primitives":[{"attributes":{"POSITION":100,"NORMAL":101,"COLOR_0":102},"indices":30,"material":1}]},{"name":"fish_04_ventral","primitives":[{"attributes":{"POSITION":103,"NORMAL":104,"COLOR_0":105},"indices":23,"material":1}]},{"name":"Sand_Horizon_80m","primitives":[{"attributes":{"POSITION":106,"NORMAL":107,"TEXCOORD_0":108,"COLOR_0":109},"indices":110,"material":0}]},{"name":"Hardbottom_Low_Irregular_Limestone","primitives":[{"attributes":{"POSITION":111,"NORMAL":112,"TEXCOORD_0":113,"COLOR_0":114},"indices":115,"material":2}]},{"name":"Coral_Low_Irregular_Encrusting_Mounds","primitives":[{"attributes":{"POSITION":116,"NORMAL":117,"TEXCOORD_0":118,"COLOR_0":119},"indices":120,"material":3}]},{"name":"Coral_Staghorn_Thicket_00","primitives":[{"attributes":{"POSITION":131,"NORMAL":132,"TEXCOORD_0":133,"COLOR_0":134},"indices":135,"material":3}]},{"name":"Coral_Staghorn_Thicket_01","primitives":[{"attributes":{"POSITION":136,"NORMAL":137,"TEXCOORD_0":138,"COLOR_0":139},"indices":140,"material":3}]},{"name":"Coral_Staghorn_Thicket_02","primitives":[{"attributes":{"POSITION":141,"NORMAL":142,"TEXCOORD_0":143,"COLOR_0":144},"indices":145,"material":3}]},{"name":"Coral_Staghorn_Thicket_03","primitives":[{"attributes":{"POSITION":146,"NORMAL":147,"TEXCOORD_0":148,"COLOR_0":149},"indices":150,"material":3}]},{"name":"Coral_Staghorn_Thicket_04","primitives":[{"attributes":{"POSITION":151,"NORMAL":152,"TEXCOORD_0":153,"COLOR_0":154},"indices":155,"material":3}]},{"name":"Coral_Staghorn_Thicket_05","primitives":[{"attributes":{"POSITION":156,"NORMAL":157,"TEXCOORD_0":158,"COLOR_0":159},"indices":160,"material":3}]},{"name":"Coral_Staghorn_Thicket_06","primitives":[{"attributes":{"POSITION":161,"NORMAL":162,"TEXCOORD_0":163,"COLOR_0":164},"indices":165,"material":3}]},{"name":"Coral_Staghorn_Thicket_07","primitives":[{"attributes":{"POSITION":166,"NORMAL":167,"TEXCOORD_0":168,"COLOR_0":169},"indices":170,"material":3}]},{"name":"Coral_Staghorn_Thicket_08","primitives":[{"attributes":{"POSITION":171,"NORMAL":172,"TEXCOORD_0":173,"COLOR_0":174},"indices":175,"material":3}]},{"name":"Coral_Staghorn_Thicket_09","primitives":[{"attributes":{"POSITION":176,"NORMAL":177,"TEXCOORD_0":178,"COLOR_0":179},"indices":180,"material":3}]},{"name":"Coral_Staghorn_Thicket_10","primitives":[{"attributes":{"POSITION":181,"NORMAL":182,"TEXCOORD_0":183,"COLOR_0":184},"indices":185,"material":3}]},{"name":"Coral_Staghorn_Thicket_11","primitives":[{"attributes":{"POSITION":186,"NORMAL":187,"TEXCOORD_0":188,"COLOR_0":189},"indices":190,"material":3}]},{"name":"Coral_Staghorn_Thicket_12","primitives":[{"attributes":{"POSITION":191,"NORMAL":192,"TEXCOORD_0":193,"COLOR_0":194},"indices":195,"material":3}]},{"name":"Coral_Staghorn_Thicket_13","primitives":[{"attributes":{"POSITION":196,"NORMAL":197,"TEXCOORD_0":198,"COLOR_0":199},"indices":200,"material":3}]},{"name":"Coral_Staghorn_Thicket_14","primitives":[{"attributes":{"POSITION":201,"NORMAL":202,"TEXCOORD_0":203,"COLOR_0":204},"indices":205,"material":3}]},{"name":"Coral_Staghorn_Thicket_15","primitives":[{"attributes":{"POSITION":206,"NORMAL":207,"TEXCOORD_0":208,"COLOR_0":209},"indices":210,"material":3}]},{"name":"Coral_Staghorn_Thicket_16","primitives":[{"attributes":{"POSITION":211,"NORMAL":212,"TEXCOORD_0":213,"COLOR_0":214},"indices":215,"material":3}]},{"name":"Coral_Staghorn_Thicket_17","primitives":[{"attributes":{"POSITION":216,"NORMAL":217,"TEXCOORD_0":218,"COLOR_0":219},"indices":220,"material":3}]},{"name":"Coral_Staghorn_Thicket_18","primitives":[{"attributes":{"POSITION":221,"NORMAL":222,"TEXCOORD_0":223,"COLOR_0":224},"indices":225,"material":3}]},{"name":"Coral_Staghorn_Thicket_19","primitives":[{"attributes":{"POSITION":226,"NORMAL":227,"TEXCOORD_0":228,"COLOR_0":229},"indices":230,"material":3}]},{"name":"Coral_Staghorn_Thicket_20","primitives":[{"attributes":{"POSITION":231,"NORMAL":232,"TEXCOORD_0":233,"COLOR_0":234},"indices":235,"material":3}]},{"name":"Coral_Staghorn_Thicket_21","primitives":[{"attributes":{"POSITION":236,"NORMAL":237,"TEXCOORD_0":238,"COLOR_0":239},"indices":240,"material":3}]},{"name":"Depth_Hardbottom_Closed_Irregular_Rises","primitives":[{"attributes":{"POSITION":121,"NORMAL":122,"TEXCOORD_0":123,"COLOR_0":124},"indices":125,"material":2}]},{"name":"Original_Limestone_Shared_Distant_Support","primitives":[{"attributes":{"POSITION":127,"NORMAL":128,"TEXCOORD_0":129,"COLOR_0":130},"indices":126,"material":2}]}],"textures":[{"sampler":0,"source":0},{"sampler":0,"source":1},{"sampler":0,"source":2},{"sampler":0,"source":3},{"sampler":0,"source":4},{"sampler":0,"source":5}],"images":[{"mimeType":"image/png","name":"sand_normal","uri":"reef-texture-0.png"},{"mimeType":"image/png","name":"sand_roughness","uri":"reef-texture-1.png"},{"mimeType":"image/png","name":"limestone_normal","uri":"reef-texture-2.png"},{"mimeType":"image/png","name":"limestone_roughness","uri":"reef-texture-3.png"},{"mimeType":"image/png","name":"coral_normal","uri":"reef-texture-4.png"},{"mimeType":"image/png","name":"coral_roughness","uri":"reef-texture-5.png"}],"accessors":[{"bufferView":0,"componentType":5126,"count":13456,"max":[16,-0.09801679104566574,16],"min":[-16,-0.18198320269584656,-16],"type":"VEC3"},{"bufferView":1,"componentType":5126,"count":13456,"type":"VEC3"},{"bufferView":2,"componentType":5126,"count":13456,"type":"VEC2"},{"bufferView":3,"componentType":5126,"count":13456,"type":"VEC3"},{"bufferView":4,"componentType":5123,"count":79350,"type":"SCALAR"},{"bufferView":5,"componentType":5126,"count":1584,"max":[0.5699897408485413,0.3199999928474426,0.15000000596046448],"min":[-0.5699897408485413,-0.3199999928474426,-0.15000000596046448],"type":"VEC3"},{"bufferView":6,"componentType":5126,"count":1584,"type":"VEC3"},{"bufferView":7,"componentType":5126,"count":1584,"type":"VEC3"},{"bufferView":8,"componentType":5123,"count":9492,"type":"SCALAR"},{"bufferView":9,"componentType":5126,"count":6,"max":[0.28999999165534973,0.5099999904632568,0.012000000104308128],"min":[-0.38999998569488525,0.2199999988079071,-0.012000000104308128],"type":"VEC3"},{"bufferView":10,"componentType":5126,"count":6,"type":"VEC3"},{"bufferView":11,"componentType":5126,"count":6,"type":"VEC3"},{"bufferView":12,"componentType":5123,"count":24,"type":"SCALAR"},{"bufferView":13,"componentType":5126,"count":1344,"max":[0.4500858187675476,0.14116299152374268,0.13581213355064392],"min":[0.30938276648521423,0.003343211254104972,0.06651820987462997],"type":"VEC3"},{"bufferView":14,"componentType":5126,"count":1344,"type":"VEC3"},{"bufferView":15,"componentType":5126,"count":1344,"type":"VEC3"},{"bufferView":16,"componentType":5123,"count":8040,"type":"SCALAR"},{"bufferView":17,"componentType":5126,"count":1344,"max":[0.4500858187675476,0.14116299152374268,-0.06692269444465637],"min":[0.30938276648521423,0.003343211254104972,-0.1359919011592865],"type":"VEC3"},{"bufferView":18,"componentType":5126,"count":1344,"type":"VEC3"},{"bufferView":19,"componentType":5126,"count":1344,"type":"VEC3"},{"bufferView":20,"componentType":5126,"count":6,"max":[0.14000000059604645,0.019999999552965164,0.3720000088214874],"min":[-0.1599999964237213,-0.14000000059604645,0.1080000028014183],"type":"VEC3"},{"bufferView":21,"componentType":5126,"count":6,"type":"VEC3"},{"bufferView":22,"componentType":5126,"count":6,"type":"VEC3"},{"bufferView":23,"componentType":5123,"count":24,"type":"SCALAR"},{"bufferView":24,"componentType":5126,"count":6,"max":[0.14000000059604645,0.019999999552965164,-0.1080000028014183],"min":[-0.1599999964237213,-0.14000000059604645,-0.3720000088214874],"type":"VEC3"},{"bufferView":25,"componentType":5126,"count":6,"type":"VEC3"},{"bufferView":26,"componentType":5126,"count":6,"type":"VEC3"},{"bufferView":27,"componentType":5126,"count":8,"max":[-0.49000000953674316,0.2800000011920929,0.012000000104308128],"min":[-0.9100000262260437,-0.2800000011920929,-0.012000000104308128],"type":"VEC3"},{"bufferView":28,"componentType":5126,"count":8,"type":"VEC3"},{"bufferView":29,"componentType":5126,"count":8,"type":"VEC3"},{"bufferView":30,"componentType":5123,"count":36,"type":"SCALAR"},{"bufferView":31,"componentType":5126,"count":6,"max":[0.20000000298023224,-0.20000000298023224,0.012000000104308128],"min":[-0.36000001430511475,-0.4300000071525574,-0.012000000104308128],"type":"VEC3"},{"bufferView":32,"componentType":5126,"count":6,"type":"VEC3"},{"bufferView":33,"componentType":5126,"count":6,"type":"VEC3"},{"bufferView":34,"componentType":5126,"count":1584,"max":[0.5699897408485413,0.3199999928474426,0.15000000596046448],"min":[-0.5699897408485413,-0.3199999928474426,-0.15000000596046448],"type":"VEC3"},{"bufferView":35,"componentType":5126,"count":1584,"type":"VEC3"},{"bufferView":36,"componentType":5126,"count":1584,"type":"VEC3"},{"bufferView":37,"componentType":5126,"count":6,"max":[0.28999999165534973,0.5099999904632568,0.012000000104308128],"min":[-0.38999998569488525,0.2199999988079071,-0.012000000104308128],"type":"VEC3"},{"bufferView":38,"componentType":5126,"count":6,"type":"VEC3"},{"bufferView":39,"componentType":5126,"count":6,"type":"VEC3"},{"bufferView":40,"componentType":5126,"count":1344,"max":[0.4500858187675476,0.14116299152374268,0.13581213355064392],"min":[0.30938276648521423,0.003343211254104972,0.06651820987462997],"type":"VEC3"},{"bufferView":41,"componentType":5126,"count":1344,"type":"VEC3"},{"bufferView":42,"componentType":5126,"count":1344,"type":"VEC3"},{"bufferView":43,"componentType":5126,"count":1344,"max":[0.4500858187675476,0.14116299152374268,-0.06692269444465637],"min":[0.30938276648521423,0.003343211254104972,-0.1359919011592865],"type":"VEC3"},{"bufferView":44,"componentType":5126,"count":1344,"type":"VEC3"},{"bufferView":45,"componentType":5126,"count":1344,"type":"VEC3"},{"bufferView":46,"componentType":5126,"count":6,"max":[0.14000000059604645,0.019999999552965164,0.3720000088214874],"min":[-0.1599999964237213,-0.14000000059604645,0.1080000028014183],"type":"VEC3"},{"bufferView":47,"componentType":5126,"count":6,"type":"VEC3"},{"bufferView":48,"componentType":5126,"count":6,"type":"VEC3"},{"bufferView":49,"componentType":5126,"count":6,"max":[0.14000000059604645,0.019999999552965164,-0.1080000028014183],"min":[-0.1599999964237213,-0.14000000059604645,-0.3720000088214874],"type":"VEC3"},{"bufferView":50,"componentType":5126,"count":6,"type":"VEC3"},{"bufferView":51,"componentType":5126,"count":6,"type":"VEC3"},{"bufferView":52,"componentType":5126,"count":8,"max":[-0.49000000953674316,0.2800000011920929,0.012000000104308128],"min":[-0.9100000262260437,-0.2800000011920929,-0.012000000104308128],"type":"VEC3"},{"bufferView":53,"componentType":5126,"count":8,"type":"VEC3"},{"bufferView":54,"componentType":5126,"count":8,"type":"VEC3"},{"bufferView":55,"componentType":5126,"count":6,"max":[0.20000000298023224,-0.20000000298023224,0.012000000104308128],"min":[-0.36000001430511475,-0.4300000071525574,-0.012000000104308128],"type":"VEC3"},{"bufferView":56,"componentType":5126,"count":6,"type":"VEC3"},{"bufferView":57,"componentType":5126,"count":6,"type":"VEC3"},{"bufferView":58,"componentType":5126,"count":1584,"max":[0.5699897408485413,0.3199999928474426,0.15000000596046448],"min":[-0.5699897408485413,-0.3199999928474426,-0.15000000596046448],"type":"VEC3"},{"bufferView":59,"componentType":5126,"count":1584,"type":"VEC3"},{"bufferView":60,"componentType":5126,"count":1584,"type":"VEC3"},{"bufferView":61,"componentType":5126,"count":6,"max":[0.28999999165534973,0.5099999904632568,0.012000000104308128],"min":[-0.38999998569488525,0.2199999988079071,-0.012000000104308128],"type":"VEC3"},{"bufferView":62,"componentType":5126,"count":6,"type":"VEC3"},{"bufferView":63,"componentType":5126,"count":6,"type":"VEC3"},{"bufferView":64,"componentType":5126,"count":1344,"max":[0.4500858187675476,0.14116299152374268,0.13581213355064392],"min":[0.30938276648521423,0.003343211254104972,0.06651820987462997],"type":"VEC3"},{"bufferView":65,"componentType":5126,"count":1344,"type":"VEC3"},{"bufferView":66,"componentType":5126,"count":1344,"type":"VEC3"},{"bufferView":67,"componentType":5126,"count":1344,"max":[0.4500858187675476,0.14116299152374268,-0.06692269444465637],"min":[0.30938276648521423,0.003343211254104972,-0.1359919011592865],"type":"VEC3"},{"bufferView":68,"componentType":5126,"count":1344,"type":"VEC3"},{"bufferView":69,"componentType":5126,"count":1344,"type":"VEC3"},{"bufferView":70,"componentType":5126,"count":6,"max":[0.14000000059604645,0.019999999552965164,0.3720000088214874],"min":[-0.1599999964237213,-0.14000000059604645,0.1080000028014183],"type":"VEC3"},{"bufferView":71,"componentType":5126,"count":6,"type":"VEC3"},{"bufferView":72,"componentType":5126,"count":6,"type":"VEC3"},{"bufferView":73,"componentType":5126,"count":6,"max":[0.14000000059604645,0.019999999552965164,-0.1080000028014183],"min":[-0.1599999964237213,-0.14000000059604645,-0.3720000088214874],"type":"VEC3"},{"bufferView":74,"componentType":5126,"count":6,"type":"VEC3"},{"bufferView":75,"componentType":5126,"count":6,"type":"VEC3"},{"bufferView":76,"componentType":5126,"count":8,"max":[-0.49000000953674316,0.2800000011920929,0.012000000104308128],"min":[-0.9100000262260437,-0.2800000011920929,-0.012000000104308128],"type":"VEC3"},{"bufferView":77,"componentType":5126,"count":8,"type":"VEC3"},{"bufferView":78,"componentType":5126,"count":8,"type":"VEC3"},{"bufferView":79,"componentType":5126,"count":6,"max":[0.20000000298023224,-0.20000000298023224,0.012000000104308128],"min":[-0.36000001430511475,-0.4300000071525574,-0.012000000104308128],"type":"VEC3"},{"bufferView":80,"componentType":5126,"count":6,"type":"VEC3"},{"bufferView":81,"componentType":5126,"count":6,"type":"VEC3"},{"bufferView":82,"componentType":5126,"count":1584,"max":[0.5699897408485413,0.3199999928474426,0.15000000596046448],"min":[-0.5699897408485413,-0.3199999928474426,-0.15000000596046448],"type":"VEC3"},{"bufferView":83,"componentType":5126,"count":1584,"type":"VEC3"},{"bufferView":84,"componentType":5126,"count":1584,"type":"VEC3"},{"bufferView":85,"componentType":5126,"count":6,"max":[0.28999999165534973,0.5099999904632568,0.012000000104308128],"min":[-0.38999998569488525,0.2199999988079071,-0.012000000104308128],"type":"VEC3"},{"bufferView":86,"componentType":5126,"count":6,"type":"VEC3"},{"bufferView":87,"componentType":5126,"count":6,"type":"VEC3"},{"bufferView":88,"componentType":5126,"count":1344,"max":[0.4500858187675476,0.14116299152374268,0.13581213355064392],"min":[0.30938276648521423,0.003343211254104972,0.06651820987462997],"type":"VEC3"},{"bufferView":89,"componentType":5126,"count":1344,"type":"VEC3"},{"bufferView":90,"componentType":5126,"count":1344,"type":"VEC3"},{"bufferView":91,"componentType":5126,"count":1344,"max":[0.4500858187675476,0.14116299152374268,-0.06692269444465637],"min":[0.30938276648521423,0.003343211254104972,-0.1359919011592865],"type":"VEC3"},{"bufferView":92,"componentType":5126,"count":1344,"type":"VEC3"},{"bufferView":93,"componentType":5126,"count":1344,"type":"VEC3"},{"bufferView":94,"componentType":5126,"count":6,"max":[0.14000000059604645,0.019999999552965164,0.3720000088214874],"min":[-0.1599999964237213,-0.14000000059604645,0.1080000028014183],"type":"VEC3"},{"bufferView":95,"componentType":5126,"count":6,"type":"VEC3"},{"bufferView":96,"componentType":5126,"count":6,"type":"VEC3"},{"bufferView":97,"componentType":5126,"count":6,"max":[0.14000000059604645,0.019999999552965164,-0.1080000028014183],"min":[-0.1599999964237213,-0.14000000059604645,-0.3720000088214874],"type":"VEC3"},{"bufferView":98,"componentType":5126,"count":6,"type":"VEC3"},{"bufferView":99,"componentType":5126,"count":6,"type":"VEC3"},{"bufferView":100,"componentType":5126,"count":8,"max":[-0.49000000953674316,0.2800000011920929,0.012000000104308128],"min":[-0.9100000262260437,-0.2800000011920929,-0.012000000104308128],"type":"VEC3"},{"bufferView":101,"componentType":5126,"count":8,"type":"VEC3"},{"bufferView":102,"componentType":5126,"count":8,"type":"VEC3"},{"bufferView":103,"componentType":5126,"count":6,"max":[0.20000000298023224,-0.20000000298023224,0.012000000104308128],"min":[-0.36000001430511475,-0.4300000071525574,-0.012000000104308128],"type":"VEC3"},{"bufferView":104,"componentType":5126,"count":6,"type":"VEC3"},{"bufferView":105,"componentType":5126,"count":6,"type":"VEC3"},{"bufferView":106,"componentType":5126,"count":4,"max":[400,-0.2199999988079071,400],"min":[-400,-0.2199999988079071,-400],"type":"VEC3"},{"bufferView":107,"componentType":5126,"count":4,"type":"VEC3"},{"bufferView":108,"componentType":5126,"count":4,"type":"VEC2"},{"bufferView":109,"componentType":5126,"count":4,"type":"VEC3"},{"bufferView":110,"componentType":5123,"count":6,"type":"SCALAR"},{"bufferView":111,"componentType":5126,"count":24420,"max":[7.5,0.11914811283349991,5.400000095367432],"min":[-7.5,-0.2549999952316284,-8.600000381469727],"type":"VEC3"},{"bufferView":112,"componentType":5126,"count":24420,"type":"VEC3"},{"bufferView":113,"componentType":5126,"count":24420,"type":"VEC2"},{"bufferView":114,"componentType":5126,"count":24420,"type":"VEC3"},{"bufferView":115,"componentType":5123,"count":144150,"type":"SCALAR"},{"bufferView":116,"componentType":5126,"count":28019,"max":[4.7322916984558105,0.43323639035224915,3.5190091133117676],"min":[-5.408329010009766,-0.3010734021663666,-6.349827289581299],"type":"VEC3"},{"bufferView":117,"componentType":5126,"count":28019,"type":"VEC3"},{"bufferView":118,"componentType":5126,"count":28019,"type":"VEC2"},{"bufferView":119,"componentType":5126,"count":28019,"type":"VEC3"},{"bufferView":120,"componentType":5123,"count":107820,"type":"SCALAR"},{"bufferView":121,"componentType":5126,"count":6912,"max":[16.704662322998047,0.6499999761581421,17.240453720092773],"min":[-22.761449813842773,-1.1299999952316284,-24.318992614746094],"type":"VEC3"},{"bufferView":122,"componentType":5126,"count":6912,"type":"VEC3"},{"bufferView":123,"componentType":5126,"count":6912,"type":"VEC2"},{"bufferView":124,"componentType":5126,"count":6912,"type":"VEC3"},{"bufferView":125,"componentType":5123,"count":38880,"type":"SCALAR"},{"bufferView":126,"componentType":5123,"count":144150,"type":"SCALAR"},{"bufferView":127,"componentType":5126,"count":24420,"max":[7.5,0.12048760056495667,5.400000095367432],"min":[-7.5,-1.0682045221328735,-8.600000381469727],"type":"VEC3"},{"bufferView":128,"componentType":5126,"count":24420,"type":"VEC3"},{"bufferView":129,"componentType":5126,"count":24420,"type":"VEC2"},{"bufferView":130,"componentType":5126,"count":24420,"type":"VEC3"},{"bufferView":131,"componentType":5126,"count":13825,"max":[-3.571734666824341,1.0043666362762451,1.8776254653930664],"min":[-5.45406436920166,-0.01848790980875492,-0.00011587375774979591],"type":"VEC3"},{"bufferView":132,"componentType":5126,"count":13825,"type":"VEC3"},{"bufferView":133,"componentType":5126,"count":13825,"type":"VEC2"},{"bufferView":134,"componentType":5126,"count":13825,"type":"VEC3"},{"bufferView":135,"componentType":5123,"count":47832,"type":"SCALAR"},{"bufferView":136,"componentType":5126,"count":17479,"max":[-1.7923390865325928,1.2133196592330933,2.7152674198150635],"min":[-4.244222164154053,-0.029190190136432648,0.4228469729423523],"type":"VEC3"},{"bufferView":137,"componentType":5126,"count":17479,"type":"VEC3"},{"bufferView":138,"componentType":5126,"count":17479,"type":"VEC2"},{"bufferView":139,"componentType":5126,"count":17479,"type":"VEC3"},{"bufferView":140,"componentType":5123,"count":60264,"type":"SCALAR"},{"bufferView":141,"componentType":5126,"count":12857,"max":[0.7362141609191895,1.144849181175232,1.9464151859283447],"min":[-1.9800925254821777,-0.033531554043293,-0.36310112476348877],"type":"VEC3"},{"bufferView":142,"componentType":5126,"count":12857,"type":"VEC3"},{"bufferView":143,"componentType":5126,"count":12857,"type":"VEC2"},{"bufferView":144,"componentType":5126,"count":12857,"type":"VEC3"},{"bufferView":145,"componentType":5123,"count":44712,"type":"SCALAR"},{"bufferView":146,"componentType":5126,"count":17354,"max":[2.792860984802246,1.3734440803527832,3.2405953407287598],"min":[0.14067882299423218,-0.02655588462948799,0.06793197989463806],"type":"VEC3"},{"bufferView":147,"componentType":5126,"count":17354,"type":"VEC3"},{"bufferView":148,"componentType":5126,"count":17354,"type":"VEC2"},{"bufferView":149,"componentType":5126,"count":17354,"type":"VEC3"},{"bufferView":150,"componentType":5123,"count":60360,"type":"SCALAR"},{"bufferView":151,"componentType":5126,"count":12441,"max":[4.0953569412231445,1.2684621810913086,1.9474176168441772],"min":[1.3112483024597168,-0.033549100160598755,-0.5282799601554871],"type":"VEC3"},{"bufferView":152,"componentType":5126,"count":12441,"type":"VEC3"},{"bufferView":153,"componentType":5126,"count":12441,"type":"VEC2"},{"bufferView":154,"componentType":5126,"count":12441,"type":"VEC3"},{"bufferView":155,"componentType":5123,"count":43176,"type":"SCALAR"},{"bufferView":156,"componentType":5126,"count":12855,"max":[6.104658126831055,1.1621043682098389,1.064716100692749],"min":[3.6618852615356445,-0.029758749529719353,-1.2787309885025024],"type":"VEC3"},{"bufferView":157,"componentType":5126,"count":12855,"type":"VEC3"},{"bufferView":158,"componentType":5126,"count":12855,"type":"VEC2"},{"bufferView":159,"componentType":5126,"count":12855,"type":"VEC3"},{"bufferView":160,"componentType":5123,"count":44664,"type":"SCALAR"},{"bufferView":161,"componentType":5126,"count":17358,"max":[-3.6998696327209473,1.1258527040481567,-0.06757199019193649],"min":[-6.0655293464660645,-0.028940577059984207,-2.6527762413024902],"type":"VEC3"},{"bufferView":162,"componentType":5126,"count":17358,"type":"VEC3"},{"bufferView":163,"componentType":5126,"count":17358,"type":"VEC2"},{"bufferView":164,"componentType":5126,"count":17358,"type":"VEC3"},{"bufferView":165,"componentType":5123,"count":59904,"type":"SCALAR"},{"bufferView":166,"componentType":5126,"count":14386,"max":[-1.8306201696395874,1.3681113719940186,0.7822626233100891],"min":[-4.755051136016846,-0.031888678669929504,-1.7672624588012695],"type":"VEC3"},{"bufferView":167,"componentType":5126,"count":14386,"type":"VEC3"},{"bufferView":168,"componentType":5126,"count":14386,"type":"VEC2"},{"bufferView":169,"componentType":5126,"count":14386,"type":"VEC3"},{"bufferView":170,"componentType":5123,"count":50184,"type":"SCALAR"},{"bufferView":171,"componentType":5126,"count":11122,"max":[-0.5948418378829956,1.0436317920684814,0.058133356273174286],"min":[-3.156707286834717,-0.020406147465109825,-2.2098894119262695],"type":"VEC3"},{"bufferView":172,"componentType":5126,"count":11122,"type":"VEC3"},{"bufferView":173,"componentType":5126,"count":11122,"type":"VEC2"},{"bufferView":174,"componentType":5126,"count":11122,"type":"VEC3"},{"bufferView":175,"componentType":5123,"count":38880,"type":"SCALAR"},{"bufferView":176,"componentType":5126,"count":19323,"max":[1.4994878768920898,1.3101956844329834,-0.1781400591135025],"min":[-0.8679446578025818,-0.030224211513996124,-2.943645477294922],"type":"VEC3"},{"bufferView":177,"componentType":5126,"count":19323,"type":"VEC3"},{"bufferView":178,"componentType":5126,"count":19323,"type":"VEC2"},{"bufferView":179,"componentType":5126,"count":19323,"type":"VEC3"},{"bufferView":180,"componentType":5123,"count":66912,"type":"SCALAR"},{"bufferView":181,"componentType":5126,"count":13956,"max":[2.628977060317993,1.3018594980239868,0.397871196269989],"min":[0.7025232315063477,-0.014876341447234154,-1.9517648220062256],"type":"VEC3"},{"bufferView":182,"componentType":5126,"count":13956,"type":"VEC3"},{"bufferView":183,"componentType":5126,"count":13956,"type":"VEC2"},{"bufferView":184,"componentType":5126,"count":13956,"type":"VEC3"},{"bufferView":185,"componentType":5123,"count":48192,"type":"SCALAR"},{"bufferView":186,"componentType":5126,"count":19082,"max":[5.284125804901123,1.281713843345642,-0.5468685030937195],"min":[2.292651653289795,-0.028464343398809433,-3.185032606124878],"type":"VEC3"},{"bufferView":187,"componentType":5126,"count":19082,"type":"VEC3"},{"bufferView":188,"componentType":5126,"count":19082,"type":"VEC2"},{"bufferView":189,"componentType":5126,"count":19082,"type":"VEC3"},{"bufferView":190,"componentType":5123,"count":66504,"type":"SCALAR"},{"bufferView":191,"componentType":5126,"count":12447,"max":[-3.093740224838257,1.1731092929840088,-1.844254493713379],"min":[-5.487821102142334,-0.022860929369926453,-4.356993675231934],"type":"VEC3"},{"bufferView":192,"componentType":5126,"count":12447,"type":"VEC3"},{"bufferView":193,"componentType":5126,"count":12447,"type":"VEC2"},{"bufferView":194,"componentType":5126,"count":12447,"type":"VEC3"},{"bufferView":195,"componentType":5123,"count":43176,"type":"SCALAR"},{"bufferView":196,"componentType":5126,"count":13370,"max":[-1.192134141921997,1.2203572988510132,-2.2009150981903076],"min":[-3.4761953353881836,-0.026380345225334167,-4.591306209564209],"type":"VEC3"},{"bufferView":197,"componentType":5126,"count":13370,"type":"VEC3"},{"bufferView":198,"componentType":5126,"count":13370,"type":"VEC2"},{"bufferView":199,"componentType":5126,"count":13370,"type":"VEC3"},{"bufferView":200,"componentType":5123,"count":46344,"type":"SCALAR"},{"bufferView":201,"componentType":5126,"count":10943,"max":[0.4189465045928955,0.9105039834976196,-2.215141773223877],"min":[-1.7117897272109985,-0.034994352608919144,-4.079056739807129],"type":"VEC3"},{"bufferView":202,"componentType":5126,"count":10943,"type":"VEC3"},{"bufferView":203,"componentType":5126,"count":10943,"type":"VEC2"},{"bufferView":204,"componentType":5126,"count":10943,"type":"VEC3"},{"bufferView":205,"componentType":5123,"count":37656,"type":"SCALAR"},{"bufferView":206,"componentType":5126,"count":13384,"max":[2.5558719635009766,1.1954317092895508,-2.1449832916259766],"min":[0.27794042229652405,-0.008921194821596146,-4.760893821716309],"type":"VEC3"},{"bufferView":207,"componentType":5126,"count":13384,"type":"VEC3"},{"bufferView":208,"componentType":5126,"count":13384,"type":"VEC2"},{"bufferView":209,"componentType":5126,"count":13384,"type":"VEC3"},{"bufferView":210,"componentType":5123,"count":46296,"type":"SCALAR"},{"bufferView":211,"componentType":5126,"count":14085,"max":[3.9674360752105713,1.2305179834365845,-3.318761110305786],"min":[1.5805772542953491,-0.040152497589588165,-5.408870220184326],"type":"VEC3"},{"bufferView":212,"componentType":5126,"count":14085,"type":"VEC3"},{"bufferView":213,"componentType":5126,"count":14085,"type":"VEC2"},{"bufferView":214,"componentType":5126,"count":14085,"type":"VEC3"},{"bufferView":215,"componentType":5123,"count":48600,"type":"SCALAR"},{"bufferView":216,"componentType":5126,"count":14865,"max":[-2.9572112560272217,1.0311576128005981,-4.219857215881348],"min":[-4.860779762268066,-0.02323213405907154,-5.982032299041748],"type":"VEC3"},{"bufferView":217,"componentType":5126,"count":14865,"type":"VEC3"},{"bufferView":218,"componentType":5126,"count":14865,"type":"VEC2"},{"bufferView":219,"componentType":5126,"count":14865,"type":"VEC3"},{"bufferView":220,"componentType":5123,"count":51720,"type":"SCALAR"},{"bufferView":221,"componentType":5126,"count":17236,"max":[-0.5932313203811646,1.2739858627319336,-4.1291046142578125],"min":[-3.3809587955474854,-0.03495853394269943,-6.6115498542785645],"type":"VEC3"},{"bufferView":222,"componentType":5126,"count":17236,"type":"VEC3"},{"bufferView":223,"componentType":5126,"count":17236,"type":"VEC2"},{"bufferView":224,"componentType":5126,"count":17236,"type":"VEC3"},{"bufferView":225,"componentType":5123,"count":59592,"type":"SCALAR"},{"bufferView":226,"componentType":5126,"count":16019,"max":[1.588410496711731,1.2868685722351074,-4.518284320831299],"min":[-0.9828159809112549,-0.018332745879888535,-6.451301097869873],"type":"VEC3"},{"bufferView":227,"componentType":5126,"count":16019,"type":"VEC3"},{"bufferView":228,"componentType":5126,"count":16019,"type":"VEC2"},{"bufferView":229,"componentType":5126,"count":16019,"type":"VEC3"},{"bufferView":230,"componentType":5123,"count":55608,"type":"SCALAR"},{"bufferView":231,"componentType":5126,"count":16955,"max":[2.3182058334350586,1.3659508228302002,-4.728480339050293],"min":[-0.026193767786026,-0.034049153327941895,-7.678207874298096],"type":"VEC3"},{"bufferView":232,"componentType":5126,"count":16955,"type":"VEC3"},{"bufferView":233,"componentType":5126,"count":16955,"type":"VEC2"},{"bufferView":234,"componentType":5126,"count":16955,"type":"VEC3"},{"bufferView":235,"componentType":5123,"count":58992,"type":"SCALAR"},{"bufferView":236,"componentType":5126,"count":13955,"max":[5.509718418121338,1.3368700742721558,-2.2806098461151123],"min":[2.815215587615967,-0.03061903640627861,-4.568136692047119],"type":"VEC3"},{"bufferView":237,"componentType":5126,"count":13955,"type":"VEC3"},{"bufferView":238,"componentType":5126,"count":13955,"type":"VEC2"},{"bufferView":239,"componentType":5126,"count":13955,"type":"VEC3"},{"bufferView":240,"componentType":5123,"count":48600,"type":"SCALAR"}],"bufferViews":[{"buffer":0,"byteLength":161472,"byteOffset":0,"target":34962},{"buffer":0,"byteLength":161472,"byteOffset":161472,"target":34962},{"buffer":0,"byteLength":107648,"byteOffset":322944,"target":34962},{"buffer":0,"byteLength":161472,"byteOffset":430592,"target":34962},{"buffer":0,"byteLength":158700,"byteOffset":592064,"target":34963},{"buffer":0,"byteLength":19008,"byteOffset":750764,"target":34962},{"buffer":0,"byteLength":19008,"byteOffset":769772,"target":34962},{"buffer":0,"byteLength":19008,"byteOffset":788780,"target":34962},{"buffer":0,"byteLength":18984,"byteOffset":807788,"target":34963},{"buffer":0,"byteLength":72,"byteOffset":826772,"target":34962},{"buffer":0,"byteLength":72,"byteOffset":826844,"target":34962},{"buffer":0,"byteLength":72,"byteOffset":826916,"target":34962},{"buffer":0,"byteLength":48,"byteOffset":826988,"target":34963},{"buffer":0,"byteLength":16128,"byteOffset":827036,"target":34962},{"buffer":0,"byteLength":16128,"byteOffset":843164,"target":34962},{"buffer":0,"byteLength":16128,"byteOffset":859292,"target":34962},{"buffer":0,"byteLength":16080,"byteOffset":875420,"target":34963},{"buffer":0,"byteLength":16128,"byteOffset":891500,"target":34962},{"buffer":0,"byteLength":16128,"byteOffset":907628,"target":34962},{"buffer":0,"byteLength":16128,"byteOffset":923756,"target":34962},{"buffer":0,"byteLength":72,"byteOffset":939884,"target":34962},{"buffer":0,"byteLength":72,"byteOffset":939956,"target":34962},{"buffer":0,"byteLength":72,"byteOffset":940028,"target":34962},{"buffer":0,"byteLength":48,"byteOffset":940100,"target":34963},{"buffer":0,"byteLength":72,"byteOffset":940148,"target":34962},{"buffer":0,"byteLength":72,"byteOffset":940220,"target":34962},{"buffer":0,"byteLength":72,"byteOffset":940292,"target":34962},{"buffer":0,"byteLength":96,"byteOffset":940364,"target":34962},{"buffer":0,"byteLength":96,"byteOffset":940460,"target":34962},{"buffer":0,"byteLength":96,"byteOffset":940556,"target":34962},{"buffer":0,"byteLength":72,"byteOffset":940652,"target":34963},{"buffer":0,"byteLength":72,"byteOffset":940724,"target":34962},{"buffer":0,"byteLength":72,"byteOffset":940796,"target":34962},{"buffer":0,"byteLength":72,"byteOffset":940868,"target":34962},{"buffer":0,"byteLength":19008,"byteOffset":940940,"target":34962},{"buffer":0,"byteLength":19008,"byteOffset":959948,"target":34962},{"buffer":0,"byteLength":19008,"byteOffset":978956,"target":34962},{"buffer":0,"byteLength":72,"byteOffset":997964,"target":34962},{"buffer":0,"byteLength":72,"byteOffset":998036,"target":34962},{"buffer":0,"byteLength":72,"byteOffset":998108,"target":34962},{"buffer":0,"byteLength":16128,"byteOffset":998180,"target":34962},{"buffer":0,"byteLength":16128,"byteOffset":1014308,"target":34962},{"buffer":0,"byteLength":16128,"byteOffset":1030436,"target":34962},{"buffer":0,"byteLength":16128,"byteOffset":1046564,"target":34962},{"buffer":0,"byteLength":16128,"byteOffset":1062692,"target":34962},{"buffer":0,"byteLength":16128,"byteOffset":1078820,"target":34962},{"buffer":0,"byteLength":72,"byteOffset":1094948,"target":34962},{"buffer":0,"byteLength":72,"byteOffset":1095020,"target":34962},{"buffer":0,"byteLength":72,"byteOffset":1095092,"target":34962},{"buffer":0,"byteLength":72,"byteOffset":1095164,"target":34962},{"buffer":0,"byteLength":72,"byteOffset":1095236,"target":34962},{"buffer":0,"byteLength":72,"byteOffset":1095308,"target":34962},{"buffer":0,"byteLength":96,"byteOffset":1095380,"target":34962},{"buffer":0,"byteLength":96,"byteOffset":1095476,"target":34962},{"buffer":0,"byteLength":96,"byteOffset":1095572,"target":34962},{"buffer":0,"byteLength":72,"byteOffset":1095668,"target":34962},{"buffer":0,"byteLength":72,"byteOffset":1095740,"target":34962},{"buffer":0,"byteLength":72,"byteOffset":1095812,"target":34962},{"buffer":0,"byteLength":19008,"byteOffset":1095884,"target":34962},{"buffer":0,"byteLength":19008,"byteOffset":1114892,"target":34962},{"buffer":0,"byteLength":19008,"byteOffset":1133900,"target":34962},{"buffer":0,"byteLength":72,"byteOffset":1152908,"target":34962},{"buffer":0,"byteLength":72,"byteOffset":1152980,"target":34962},{"buffer":0,"byteLength":72,"byteOffset":1153052,"target":34962},{"buffer":0,"byteLength":16128,"byteOffset":1153124,"target":34962},{"buffer":0,"byteLength":16128,"byteOffset":1169252,"target":34962},{"buffer":0,"byteLength":16128,"byteOffset":1185380,"target":34962},{"buffer":0,"byteLength":16128,"byteOffset":1201508,"target":34962},{"buffer":0,"byteLength":16128,"byteOffset":1217636,"target":34962},{"buffer":0,"byteLength":16128,"byteOffset":1233764,"target":34962},{"buffer":0,"byteLength":72,"byteOffset":1249892,"target":34962},{"buffer":0,"byteLength":72,"byteOffset":1249964,"target":34962},{"buffer":0,"byteLength":72,"byteOffset":1250036,"target":34962},{"buffer":0,"byteLength":72,"byteOffset":1250108,"target":34962},{"buffer":0,"byteLength":72,"byteOffset":1250180,"target":34962},{"buffer":0,"byteLength":72,"byteOffset":1250252,"target":34962},{"buffer":0,"byteLength":96,"byteOffset":1250324,"target":34962},{"buffer":0,"byteLength":96,"byteOffset":1250420,"target":34962},{"buffer":0,"byteLength":96,"byteOffset":1250516,"target":34962},{"buffer":0,"byteLength":72,"byteOffset":1250612,"target":34962},{"buffer":0,"byteLength":72,"byteOffset":1250684,"target":34962},{"buffer":0,"byteLength":72,"byteOffset":1250756,"target":34962},{"buffer":0,"byteLength":19008,"byteOffset":1250828,"target":34962},{"buffer":0,"byteLength":19008,"byteOffset":1269836,"target":34962},{"buffer":0,"byteLength":19008,"byteOffset":1288844,"target":34962},{"buffer":0,"byteLength":72,"byteOffset":1307852,"target":34962},{"buffer":0,"byteLength":72,"byteOffset":1307924,"target":34962},{"buffer":0,"byteLength":72,"byteOffset":1307996,"target":34962},{"buffer":0,"byteLength":16128,"byteOffset":1308068,"target":34962},{"buffer":0,"byteLength":16128,"byteOffset":1324196,"target":34962},{"buffer":0,"byteLength":16128,"byteOffset":1340324,"target":34962},{"buffer":0,"byteLength":16128,"byteOffset":1356452,"target":34962},{"buffer":0,"byteLength":16128,"byteOffset":1372580,"target":34962},{"buffer":0,"byteLength":16128,"byteOffset":1388708,"target":34962},{"buffer":0,"byteLength":72,"byteOffset":1404836,"target":34962},{"buffer":0,"byteLength":72,"byteOffset":1404908,"target":34962},{"buffer":0,"byteLength":72,"byteOffset":1404980,"target":34962},{"buffer":0,"byteLength":72,"byteOffset":1405052,"target":34962},{"buffer":0,"byteLength":72,"byteOffset":1405124,"target":34962},{"buffer":0,"byteLength":72,"byteOffset":1405196,"target":34962},{"buffer":0,"byteLength":96,"byteOffset":1405268,"target":34962},{"buffer":0,"byteLength":96,"byteOffset":1405364,"target":34962},{"buffer":0,"byteLength":96,"byteOffset":1405460,"target":34962},{"buffer":0,"byteLength":72,"byteOffset":1405556,"target":34962},{"buffer":0,"byteLength":72,"byteOffset":1405628,"target":34962},{"buffer":0,"byteLength":72,"byteOffset":1405700,"target":34962},{"buffer":0,"byteLength":48,"byteOffset":1405772,"target":34962},{"buffer":0,"byteLength":48,"byteOffset":1405820,"target":34962},{"buffer":0,"byteLength":32,"byteOffset":1405868,"target":34962},{"buffer":0,"byteLength":48,"byteOffset":1405900,"target":34962},{"buffer":0,"byteLength":12,"byteOffset":1405948,"target":34963},{"buffer":0,"byteLength":293040,"byteOffset":1405960,"target":34962},{"buffer":0,"byteLength":293040,"byteOffset":1699000,"target":34962},{"buffer":0,"byteLength":195360,"byteOffset":1992040,"target":34962},{"buffer":0,"byteLength":293040,"byteOffset":2187400,"target":34962},{"buffer":0,"byteLength":288300,"byteOffset":2480440,"target":34963},{"buffer":0,"byteLength":336228,"byteOffset":2768740,"target":34962},{"buffer":0,"byteLength":336228,"byteOffset":3104968,"target":34962},{"buffer":0,"byteLength":224152,"byteOffset":3441196,"target":34962},{"buffer":0,"byteLength":336228,"byteOffset":3665348,"target":34962},{"buffer":0,"byteLength":215640,"byteOffset":4001576,"target":34963},{"buffer":0,"byteLength":82944,"byteOffset":4217216,"target":34962},{"buffer":0,"byteLength":82944,"byteOffset":4300160,"target":34962},{"buffer":0,"byteLength":55296,"byteOffset":4383104,"target":34962},{"buffer":0,"byteLength":82944,"byteOffset":4438400,"target":34962},{"buffer":0,"byteLength":77760,"byteOffset":4521344,"target":34963},{"buffer":0,"byteLength":288300,"byteOffset":4599104,"target":34963},{"buffer":0,"byteLength":293040,"byteOffset":4887404,"target":34962},{"buffer":0,"byteLength":293040,"byteOffset":5180444,"target":34962},{"buffer":0,"byteLength":195360,"byteOffset":5473484,"target":34962},{"buffer":0,"byteLength":293040,"byteOffset":5668844,"target":34962},{"buffer":0,"byteLength":165900,"byteOffset":5961884,"target":34962},{"buffer":0,"byteLength":165900,"byteOffset":6127784,"target":34962},{"buffer":0,"byteLength":110600,"byteOffset":6293684,"target":34962},{"buffer":0,"byteLength":165900,"byteOffset":6404284,"target":34962},{"buffer":0,"byteLength":95664,"byteOffset":6570184,"target":34963},{"buffer":0,"byteLength":209748,"byteOffset":6665848,"target":34962},{"buffer":0,"byteLength":209748,"byteOffset":6875596,"target":34962},{"buffer":0,"byteLength":139832,"byteOffset":7085344,"target":34962},{"buffer":0,"byteLength":209748,"byteOffset":7225176,"target":34962},{"buffer":0,"byteLength":120528,"byteOffset":7434924,"target":34963},{"buffer":0,"byteLength":154284,"byteOffset":7555452,"target":34962},{"buffer":0,"byteLength":154284,"byteOffset":7709736,"target":34962},{"buffer":0,"byteLength":102856,"byteOffset":7864020,"target":34962},{"buffer":0,"byteLength":154284,"byteOffset":7966876,"target":34962},{"buffer":0,"byteLength":89424,"byteOffset":8121160,"target":34963},{"buffer":0,"byteLength":208248,"byteOffset":8210584,"target":34962},{"buffer":0,"byteLength":208248,"byteOffset":8418832,"target":34962},{"buffer":0,"byteLength":138832,"byteOffset":8627080,"target":34962},{"buffer":0,"byteLength":208248,"byteOffset":8765912,"target":34962},{"buffer":0,"byteLength":120720,"byteOffset":8974160,"target":34963},{"buffer":0,"byteLength":149292,"byteOffset":9094880,"target":34962},{"buffer":0,"byteLength":149292,"byteOffset":9244172,"target":34962},{"buffer":0,"byteLength":99528,"byteOffset":9393464,"target":34962},{"buffer":0,"byteLength":149292,"byteOffset":9492992,"target":34962},{"buffer":0,"byteLength":86352,"byteOffset":9642284,"target":34963},{"buffer":0,"byteLength":154260,"byteOffset":9728636,"target":34962},{"buffer":0,"byteLength":154260,"byteOffset":9882896,"target":34962},{"buffer":0,"byteLength":102840,"byteOffset":10037156,"target":34962},{"buffer":0,"byteLength":154260,"byteOffset":10139996,"target":34962},{"buffer":0,"byteLength":89328,"byteOffset":10294256,"target":34963},{"buffer":0,"byteLength":208296,"byteOffset":10383584,"target":34962},{"buffer":0,"byteLength":208296,"byteOffset":10591880,"target":34962},{"buffer":0,"byteLength":138864,"byteOffset":10800176,"target":34962},{"buffer":0,"byteLength":208296,"byteOffset":10939040,"target":34962},{"buffer":0,"byteLength":119808,"byteOffset":11147336,"target":34963},{"buffer":0,"byteLength":172632,"byteOffset":11267144,"target":34962},{"buffer":0,"byteLength":172632,"byteOffset":11439776,"target":34962},{"buffer":0,"byteLength":115088,"byteOffset":11612408,"target":34962},{"buffer":0,"byteLength":172632,"byteOffset":11727496,"target":34962},{"buffer":0,"byteLength":100368,"byteOffset":11900128,"target":34963},{"buffer":0,"byteLength":133464,"byteOffset":12000496,"target":34962},{"buffer":0,"byteLength":133464,"byteOffset":12133960,"target":34962},{"buffer":0,"byteLength":88976,"byteOffset":12267424,"target":34962},{"buffer":0,"byteLength":133464,"byteOffset":12356400,"target":34962},{"buffer":0,"byteLength":77760,"byteOffset":12489864,"target":34963},{"buffer":0,"byteLength":231876,"byteOffset":12567624,"target":34962},{"buffer":0,"byteLength":231876,"byteOffset":12799500,"target":34962},{"buffer":0,"byteLength":154584,"byteOffset":13031376,"target":34962},{"buffer":0,"byteLength":231876,"byteOffset":13185960,"target":34962},{"buffer":0,"byteLength":133824,"byteOffset":13417836,"target":34963},{"buffer":0,"byteLength":167472,"byteOffset":13551660,"target":34962},{"buffer":0,"byteLength":167472,"byteOffset":13719132,"target":34962},{"buffer":0,"byteLength":111648,"byteOffset":13886604,"target":34962},{"buffer":0,"byteLength":167472,"byteOffset":13998252,"target":34962},{"buffer":0,"byteLength":96384,"byteOffset":14165724,"target":34963},{"buffer":0,"byteLength":228984,"byteOffset":14262108,"target":34962},{"buffer":0,"byteLength":228984,"byteOffset":14491092,"target":34962},{"buffer":0,"byteLength":152656,"byteOffset":14720076,"target":34962},{"buffer":0,"byteLength":228984,"byteOffset":14872732,"target":34962},{"buffer":0,"byteLength":133008,"byteOffset":15101716,"target":34963},{"buffer":0,"byteLength":149364,"byteOffset":15234724,"target":34962},{"buffer":0,"byteLength":149364,"byteOffset":15384088,"target":34962},{"buffer":0,"byteLength":99576,"byteOffset":15533452,"target":34962},{"buffer":0,"byteLength":149364,"byteOffset":15633028,"target":34962},{"buffer":0,"byteLength":86352,"byteOffset":15782392,"target":34963},{"buffer":0,"byteLength":160440,"byteOffset":15868744,"target":34962},{"buffer":0,"byteLength":160440,"byteOffset":16029184,"target":34962},{"buffer":0,"byteLength":106960,"byteOffset":16189624,"target":34962},{"buffer":0,"byteLength":160440,"byteOffset":16296584,"target":34962},{"buffer":0,"byteLength":92688,"byteOffset":16457024,"target":34963},{"buffer":0,"byteLength":131316,"byteOffset":16549712,"target":34962},{"buffer":0,"byteLength":131316,"byteOffset":16681028,"target":34962},{"buffer":0,"byteLength":87544,"byteOffset":16812344,"target":34962},{"buffer":0,"byteLength":131316,"byteOffset":16899888,"target":34962},{"buffer":0,"byteLength":75312,"byteOffset":17031204,"target":34963},{"buffer":0,"byteLength":160608,"byteOffset":17106516,"target":34962},{"buffer":0,"byteLength":160608,"byteOffset":17267124,"target":34962},{"buffer":0,"byteLength":107072,"byteOffset":17427732,"target":34962},{"buffer":0,"byteLength":160608,"byteOffset":17534804,"target":34962},{"buffer":0,"byteLength":92592,"byteOffset":17695412,"target":34963},{"buffer":0,"byteLength":169020,"byteOffset":17788004,"target":34962},{"buffer":0,"byteLength":169020,"byteOffset":17957024,"target":34962},{"buffer":0,"byteLength":112680,"byteOffset":18126044,"target":34962},{"buffer":0,"byteLength":169020,"byteOffset":18238724,"target":34962},{"buffer":0,"byteLength":97200,"byteOffset":18407744,"target":34963},{"buffer":0,"byteLength":178380,"byteOffset":18504944,"target":34962},{"buffer":0,"byteLength":178380,"byteOffset":18683324,"target":34962},{"buffer":0,"byteLength":118920,"byteOffset":18861704,"target":34962},{"buffer":0,"byteLength":178380,"byteOffset":18980624,"target":34962},{"buffer":0,"byteLength":103440,"byteOffset":19159004,"target":34963},{"buffer":0,"byteLength":206832,"byteOffset":19262444,"target":34962},{"buffer":0,"byteLength":206832,"byteOffset":19469276,"target":34962},{"buffer":0,"byteLength":137888,"byteOffset":19676108,"target":34962},{"buffer":0,"byteLength":206832,"byteOffset":19813996,"target":34962},{"buffer":0,"byteLength":119184,"byteOffset":20020828,"target":34963},{"buffer":0,"byteLength":192228,"byteOffset":20140012,"target":34962},{"buffer":0,"byteLength":192228,"byteOffset":20332240,"target":34962},{"buffer":0,"byteLength":128152,"byteOffset":20524468,"target":34962},{"buffer":0,"byteLength":192228,"byteOffset":20652620,"target":34962},{"buffer":0,"byteLength":111216,"byteOffset":20844848,"target":34963},{"buffer":0,"byteLength":203460,"byteOffset":20956064,"target":34962},{"buffer":0,"byteLength":203460,"byteOffset":21159524,"target":34962},{"buffer":0,"byteLength":135640,"byteOffset":21362984,"target":34962},{"buffer":0,"byteLength":203460,"byteOffset":21498624,"target":34962},{"buffer":0,"byteLength":117984,"byteOffset":21702084,"target":34963},{"buffer":0,"byteLength":167460,"byteOffset":21820068,"target":34962},{"buffer":0,"byteLength":167460,"byteOffset":21987528,"target":34962},{"buffer":0,"byteLength":111640,"byteOffset":22154988,"target":34962},{"buffer":0,"byteLength":167460,"byteOffset":22266628,"target":34962},{"buffer":0,"byteLength":97200,"byteOffset":22434088,"target":34963}],"samplers":[{"magFilter":9729,"minFilter":9987}],"buffers":[{"uri":"reef.bin","byteLength":22531288}]}